<?xml version="1.0" standalone="no"?>
<!DOCTYPE svg PUBLIC "-//W3C//DTD SVG 1.1//EN"
  "http://www.w3.org/Graphics/SVG/1.1/DTD/svg11.dtd">
<svg version="1.1" xmlns="http://www.w3.org/2000/svg" xmlns:xlink="http://www.w3.org/1999/xlink" width="1280" height="720" viewBox="-1040.8888888888887 -32 1889.7777777777776 1063" id="ccdiagram"><filter id="grayscale"><feColorMatrix type="matrix" values="0.3333 0.3333 0.3333 0 0 0.3333 0.3333 0.3333 0 0 0.3333 0.3333 0.3333 0 0 0 0 0 1 0"></feColorMatrix></filter><defs><style type="text/css">@import url('https://fonts.googleapis.com/css?family=Open+Sans:400,700|Inconsolata:400');</style></defs><g><g pointer-events="auto"><g opacity="1"><g id="f09553fc-7933-42d1-a0f9-c83d732ff3d6"><svg x="-127" y="222" overflow="visible"><g fill="#e8e8e8"><polygon points="0 0, 191 111, -447 480, -638 369" stroke="#e8e8e8" stroke-width="40"></polygon></g></svg></g></g><g opacity="1"><g id="a4de14ec-6b9c-4d86-b5ea-fc69ac16084e"><svg x="129" y="370" overflow="visible"><g fill="#e8e8e8"><polygon points="0 0, 191 111, -447 480, -638 369" stroke="#e8e8e8" stroke-width="40"></polygon></g></svg></g></g></g><g pointer-events="auto"><g opacity="1"><g id="194e61da-46ef-4232-b6f4-bc48194c6bb0"><g><g><polygon points="-68 664, -4 664, 268 507, 268 470, -176 213, -480 389, -480 426" stroke="#607d8b" stroke-width="8" fill="none"></polygon></g><g><polygon points="-176 213, -208 194, -432 324, -432 361" stroke="#607d8b" stroke-width="8" fill="#607d8b"></polygon><text font-family="Inconsolata" font-size="20pt" font-weight="bold" fill="#ffffff" transform="translate(-223 230) matrix(0.707 -0.409 0.707 0.409 0 0)" text-anchor="end">CORE</text><g transform="translate(-208 203) matrix(0.707 0.409 -0.707 0.409 0 0)"><svg width="23" height="32" style="fill: rgb(255, 255, 255);"><svg xmlns="http://www.w3.org/2000/svg" width="23" height="32" viewBox="0 0 23 32"><path d="M19.429 17.143V5.714h-8v20.304c.911-.482 2.375-1.321 3.804-2.446 1.911-1.5 4.196-3.839 4.196-6.429zm3.428-13.714v13.714c0 7.518-10.518 12.268-10.964 12.464a1.049 1.049 0 0 1-.928 0C10.519 29.411.001 24.661.001 17.143V3.429c0-.625.518-1.143 1.143-1.143h20.571c.625 0 1.143.518 1.143 1.143z"></path></svg></svg></g></g></g></g></g><g opacity="1"><g id="d2b1c4e2-87a8-4f21-8231-64136674fae6"><g><g><polygon points="-400 749, -336 749, -272 712, -272 675, -624 472, -720 527, -720 564" stroke="#9c27b0" stroke-width="8" fill="none"></polygon></g><g><polygon points="-624 472, -656 453, -720 490, -720 527" stroke="#9c27b0" stroke-width="8" fill="#9c27b0"></polygon><text font-family="Inconsolata" font-size="20pt" font-weight="bold" fill="#ffffff" transform="translate(-671 489) matrix(0.707 -0.409 0.707 0.409 0 0)" text-anchor="end">SSM VPCE</text><g transform="translate(-656 462) matrix(0.707 0.409 -0.707 0.409 0 0)"><svg width="23" height="32" style="fill: rgb(255, 255, 255);"><svg xmlns="http://www.w3.org/2000/svg" width="23" height="32" viewBox="0 0 23 32"><path d="M19.429 17.143V5.714h-8v20.304c.911-.482 2.375-1.321 3.804-2.446 1.911-1.5 4.196-3.839 4.196-6.429zm3.428-13.714v13.714c0 7.518-10.518 12.268-10.964 12.464a1.049 1.049 0 0 1-.928 0C10.519 29.411.001 24.661.001 17.143V3.429c0-.625.518-1.143 1.143-1.143h20.571c.625 0 1.143.518 1.143 1.143z"></path></svg></svg></g></g></g></g></g></g><g><g><polygon points="-257 555, -291 535, -393 559, -404 544, -432 583, -365 599, -376 583, -257 555" stroke-linejoin="miter" fill="#607d8b" stroke="none"></polygon><text font-family="Open Sans" font-weight="700" font-size="14pt" fill="white" transform="translate(-375 574) matrix(0.707 -0.409 0.707 0.409 0 0) rotate(22.400000000000006)" text-anchor="start">443 TCP</text></g></g><g pointer-events="auto"><g opacity="1"><g id="cb01e014-df20-4104-8f49-583e4752d840"><g><g><polygon points="-68 775, -4 775, 460 507, 460 470, -176 102, -912 527, -912 564, -400 860, -336 860, -160 759, -96 759" stroke="#2196f3" stroke-width="8" fill="none"></polygon></g><g><polygon points="-176 102, -208 83, -432 213, -432 250" stroke="#2196f3" stroke-width="8" fill="#2196f3"></polygon><text font-family="Inconsolata" font-size="20pt" font-weight="bold" fill="#ffffff" transform="translate(-216 114) matrix(0.707 -0.409 0.707 0.409 0 0)" text-anchor="end">jenkins</text><g transform="translate(-208 88) matrix(0.707 0.409 -0.707 0.409 0 0)"><svg width="34" height="32" style="fill: rgb(255, 255, 255);"><svg xmlns="http://www.w3.org/2000/svg" width="34" height="32" viewBox="0 0 34 32"><path d="M34.286 20.571a6.858 6.858 0 0 1-6.857 6.857H8c-4.411 0-8-3.589-8-8a7.993 7.993 0 0 1 4.607-7.232c-.018-.25-.036-.518-.036-.768a9.137 9.137 0 0 1 9.143-9.143c3.821 0 7.089 2.339 8.464 5.679a4.439 4.439 0 0 1 2.964-1.107 4.58 4.58 0 0 1 4.571 4.571 4.49 4.49 0 0 1-.732 2.464c3.036.714 5.304 3.429 5.304 6.679z"></path></svg></svg></g></g></g></g></g></g><g></g><g pointer-events="auto"><g opacity="1"><g id="d74610c6-d691-43f5-a5d9-c438309e3627"><svg x="-320" y="370" overflow="visible"><polygon points="0 0, 348 201, 284 238, -64 37" fill="#f5b720"></polygon><polygon points="0 0, 348 201, 284 238, -64 37" fill="none" stroke-width="20" stroke="#f5b720" opacity="1"></polygon><g cursor="nwse-resize"><polygon points="0 0, -19 -11, 13 -30, -83 -11, -115 44, -83 26, -64 37" fill="#f5b720"></polygon><polygon points="348 201, 367 212, 399 194, 367 249, 271 268, 303 249, 284 238" fill="#f5b720"></polygon></g></svg></g></g><g opacity="1"><g id="608e3d94-85c9-4130-9ec2-83307ed48474"><svg x="-176" y="287" overflow="visible"><polygon points="0 0, 348 201, 284 238, -64 37" fill="#f5b720"></polygon><polygon points="0 0, 348 201, 284 238, -64 37" fill="none" stroke-width="20" stroke="#f5b720" opacity="1"></polygon><g cursor="nwse-resize"><polygon points="0 0, -19 -11, 13 -30, -83 -11, -115 44, -83 26, -64 37" fill="#f5b720"></polygon><polygon points="348 201, 367 212, 399 194, 367 249, 271 268, 303 249, 284 238" fill="#f5b720"></polygon></g></svg></g></g></g><g pointer-events="none"></g><g pointer-events="auto"></g><g pointer-events="auto"><g opacity="1"><g id="56257816-52f1-4655-a4aa-e7356215d9db" transform="translate(0 0)"><svg x="-98" y="332" height="111" width="128" fill-rule="evenodd"><path d="M64 74v37l64-37V37L64 74z" fill="#b8b8bb"></path><path d="M0 37v37l64 37V74L0 37z" fill="#d2d2d4"></path><path d="M0 37L64 0l64 37-64 37L0 37z" fill="#ececed"></path><path d="M64 73.407l62.111-35.86.514.889-62.487 36.078h-.276L.743 38.072l.514-.89L64 73.407z" fill="#83838a"></path><path d="M63.486 74h1.027v36h-1.027z" fill="#83838a"></path><path d="M128 37v37l-64 37L0 74V37L64 0l64 37zM2.054 38.185v34.63L64 108.627l61.946-35.812v-34.63L64 2.373 2.054 38.185z" fill="#000000"></path></svg><svg x="-40" y="350" width="54" height="36" style="overflow: visible; cursor: default;"><rect transform="matrix(0.707 0.409 -0.707 0.409 0 0)" width="54" height="36" rx="5" ry="5" fill="#4286c5"></rect><text transform="matrix(0.707 0.409 -0.707 0.409 0 0)" font-family="Open Sans" text-anchor="middle" x="50%" font-weight="normal" font-size="20pt" y="80%" fill="#ffffff"><tspan>T2</tspan></text></svg></g></g><g opacity="1"><g id="921ccf94-a05f-4ce7-ab5b-4574d1db6b67" transform="translate(0 0)"><svg x="-242" y="415" height="111" width="128" fill-rule="evenodd"><path d="M64 74v37l64-37V37L64 74z" fill="#b8b8bb"></path><path d="M0 37v37l64 37V74L0 37z" fill="#d2d2d4"></path><path d="M0 37L64 0l64 37-64 37L0 37z" fill="#ececed"></path><path d="M64 73.407l62.111-35.86.514.889-62.487 36.078h-.276L.743 38.072l.514-.89L64 73.407z" fill="#83838a"></path><path d="M63.486 74h1.027v36h-1.027z" fill="#83838a"></path><path d="M128 37v37l-64 37L0 74V37L64 0l64 37zM2.054 38.185v34.63L64 108.627l61.946-35.812v-34.63L64 2.373 2.054 38.185z" fill="#000000"></path></svg><svg x="-184" y="434" width="54" height="36" style="overflow: visible; cursor: default;"><rect transform="matrix(0.707 0.409 -0.707 0.409 0 0)" width="54" height="36" rx="5" ry="5" fill="#4286c5"></rect><text transform="matrix(0.707 0.409 -0.707 0.409 0 0)" font-family="Open Sans" text-anchor="middle" x="50%" font-weight="normal" font-size="20pt" y="80%" fill="#ffffff"><tspan>T2</tspan></text></svg></g></g></g><g pointer-events="auto"></g><g pointer-events="auto"><g opacity="1"><g id="f47ca07b-cd15-4330-a5f6-179edf05d27d" transform="translate(0 0)"><svg x="-624" y="546" overflow="visible"><g transform="scale(1.8866823560154478) matrix(0.707, 0.409, 0, 0.816, 0, 0) translate(25 0)"><circle cx="0" cy="0" fill="transparent" r="25"></circle><svg width="50" height="50" x="-25" y="-25" style=""><svg xmlns="http://www.w3.org/2000/svg" viewBox="0 0 50 50"><g id="Working" fill="#693cc5"><path d="M25 41.94c-5 0-8.76-2.61-10.77-7.54a21.33 21.33 0 0 1-1.45-6.52l2-.13a19.52 19.52 0 0 0 1.3 5.89c1.7 4.18 4.7 6.3 8.92 6.3 10.1 0 10.25-11.52 10.25-12V14.27L25 10.14l-10.25 4.13v7.92h-2v-8.6a1 1 0 0 1 .63-.93l11.25-4.53a1 1 0 0 1 .74 0l11.25 4.53a1 1 0 0 1 .63.93v14.34c0 .14-.14 14.01-12.25 14.01z"></path><path d="M25 37.62c-6.76 0-8.42-8.77-8.48-9.14a1.1 1.1 0 0 1 0-.18v-.49h2v.39c.17.81 1.7 7.42 6.5 7.42S31.33 29 31.5 28.2V17.64L25 15l-6.5 2.61v4.55h-2V17a1 1 0 0 1 .63-.93l7.5-3a1 1 0 0 1 .74 0l7.5 3a1 1 0 0 1 .63.93v11.3a1.1 1.1 0 0 1 0 .18c-.08.37-1.74 9.14-8.5 9.14z"></path><path d="M25 48.5A23.5 23.5 0 1 1 48.5 25 23.52 23.52 0 0 1 25 48.5zm0-45A21.5 21.5 0 1 0 46.5 25 21.52 21.52 0 0 0 25 3.5z"></path><path d="M22.89 30.39L21.48 29l4-4-4-4 1.41-1.41 4.69 4.68a1 1 0 0 1 0 1.42z"></path><path d="M6.25 24h20.63v2H6.25z"></path></g></svg></svg></g></svg></g></g><g opacity="1"><g id="0be7cd05-5f4e-401b-ab0f-883062de3de5" transform="translate(0 0)"><svg x="-368" y="694" overflow="visible"><g transform="scale(1.8866823560154478) matrix(0.707, 0.409, 0, 0.816, 0, 0) translate(25 0)"><circle cx="0" cy="0" fill="transparent" r="25"></circle><svg width="50" height="50" x="-25" y="-25" style=""><svg xmlns="http://www.w3.org/2000/svg" viewBox="0 0 50 50"><g id="Working" fill="#693cc5"><path d="M25 41.94c-5 0-8.76-2.61-10.77-7.54a21.33 21.33 0 0 1-1.45-6.52l2-.13a19.52 19.52 0 0 0 1.3 5.89c1.7 4.18 4.7 6.3 8.92 6.3 10.1 0 10.25-11.52 10.25-12V14.27L25 10.14l-10.25 4.13v7.92h-2v-8.6a1 1 0 0 1 .63-.93l11.25-4.53a1 1 0 0 1 .74 0l11.25 4.53a1 1 0 0 1 .63.93v14.34c0 .14-.14 14.01-12.25 14.01z"></path><path d="M25 37.62c-6.76 0-8.42-8.77-8.48-9.14a1.1 1.1 0 0 1 0-.18v-.49h2v.39c.17.81 1.7 7.42 6.5 7.42S31.33 29 31.5 28.2V17.64L25 15l-6.5 2.61v4.55h-2V17a1 1 0 0 1 .63-.93l7.5-3a1 1 0 0 1 .74 0l7.5 3a1 1 0 0 1 .63.93v11.3a1.1 1.1 0 0 1 0 .18c-.08.37-1.74 9.14-8.5 9.14z"></path><path d="M25 48.5A23.5 23.5 0 1 1 48.5 25 23.52 23.52 0 0 1 25 48.5zm0-45A21.5 21.5 0 1 0 46.5 25 21.52 21.52 0 0 0 25 3.5z"></path><path d="M22.89 30.39L21.48 29l4-4-4-4 1.41-1.41 4.69 4.68a1 1 0 0 1 0 1.42z"></path><path d="M6.25 24h20.63v2H6.25z"></path></g></svg></svg></g></svg></g></g><g opacity="1"><g id="ecdf4638-29a8-402b-8fde-b2cb0b725669" transform="translate(0 0)"><svg x="-496" y="620" overflow="visible"><g transform="scale(1.8866823560154478) matrix(0.707, 0.409, 0, 0.816, 0, 0) translate(25 0)"><circle cx="0" cy="0" fill="transparent" r="25"></circle><svg width="50" height="50" x="-25" y="-25" style=""><svg xmlns="http://www.w3.org/2000/svg" viewBox="0 0 50 50"><g id="Working" fill="#693cc5"><path d="M25 41.94c-5 0-8.76-2.61-10.77-7.54a21.33 21.33 0 0 1-1.45-6.52l2-.13a19.52 19.52 0 0 0 1.3 5.89c1.7 4.18 4.7 6.3 8.92 6.3 10.1 0 10.25-11.52 10.25-12V14.27L25 10.14l-10.25 4.13v7.92h-2v-8.6a1 1 0 0 1 .63-.93l11.25-4.53a1 1 0 0 1 .74 0l11.25 4.53a1 1 0 0 1 .63.93v14.34c0 .14-.14 14.01-12.25 14.01z"></path><path d="M25 37.62c-6.76 0-8.42-8.77-8.48-9.14a1.1 1.1 0 0 1 0-.18v-.49h2v.39c.17.81 1.7 7.42 6.5 7.42S31.33 29 31.5 28.2V17.64L25 15l-6.5 2.61v4.55h-2V17a1 1 0 0 1 .63-.93l7.5-3a1 1 0 0 1 .74 0l7.5 3a1 1 0 0 1 .63.93v11.3a1.1 1.1 0 0 1 0 .18c-.08.37-1.74 9.14-8.5 9.14z"></path><path d="M25 48.5A23.5 23.5 0 1 1 48.5 25 23.52 23.52 0 0 1 25 48.5zm0-45A21.5 21.5 0 1 0 46.5 25 21.52 21.52 0 0 0 25 3.5z"></path><path d="M22.89 30.39L21.48 29l4-4-4-4 1.41-1.41 4.69 4.68a1 1 0 0 1 0 1.42z"></path><path d="M6.25 24h20.63v2H6.25z"></path></g></svg></svg></g></svg></g></g></g><g pointer-events="auto"><g opacity="1"><g id="5facbac1-6b61-4b31-8f93-d587c45d9c60"><svg x="-322" y="461" overflow="visible"><text stroke="#ffffff" stroke-width="4" font-family="Open Sans" y="36.5" font-size="25pt" fill="#000000" font-weight="bold" transform="matrix(0.707, 0.409, 0, 0.816, 0, 0)" xml:space="preserve"><tspan x="8" dy="0">Jenkins Master</tspan></text><text font-family="Open Sans" y="36.5" font-size="25pt" fill="#000000" font-weight="bold" transform="matrix(0.707, 0.409, 0, 0.816, 0, 0)" xml:space="preserve"><tspan x="8" dy="0">Jenkins Master</tspan></text></svg></g></g><g opacity="1"><g id="b7c71b9a-502b-46a9-ba99-46cdc2cf8c0a"><svg x="-704" y="537" overflow="visible"><text stroke="#ffffff" stroke-width="4" font-family="Open Sans" y="36.5" font-size="25pt" fill="#000000" font-weight="bold" transform="matrix(0.707, 0.409, 0, 0.816, 0, 0)" xml:space="preserve"><tspan x="8" dy="0">ssmmessages</tspan></text><text font-family="Open Sans" y="36.5" font-size="25pt" fill="#000000" font-weight="bold" transform="matrix(0.707, 0.409, 0, 0.816, 0, 0)" xml:space="preserve"><tspan x="8" dy="0">ssmmessages</tspan></text></svg></g></g><g opacity="1"><g id="4df7f498-d14f-4d28-b8b2-1a8fde95250a"><svg x="-432" y="694" overflow="visible"><text stroke="#ffffff" stroke-width="4" font-family="Open Sans" y="36.5" font-size="25pt" fill="#000000" font-weight="bold" transform="matrix(0.707, 0.409, 0, 0.816, 0, 0)" xml:space="preserve"><tspan x="8" dy="0">ec2messages</tspan></text><text font-family="Open Sans" y="36.5" font-size="25pt" fill="#000000" font-weight="bold" transform="matrix(0.707, 0.409, 0, 0.816, 0, 0)" xml:space="preserve"><tspan x="8" dy="0">ec2messages</tspan></text></svg></g></g><g opacity="1"><g id="1fdb9a9b-733c-4b93-aa33-a2d4d2a3b0fb"><svg x="-496" y="657" overflow="visible"><text stroke="#ffffff" stroke-width="4" font-family="Open Sans" y="36.5" font-size="25pt" fill="#000000" font-weight="bold" transform="matrix(0.707, 0.409, 0, 0.816, 0, 0)" xml:space="preserve"><tspan x="8" dy="0">ssm</tspan></text><text font-family="Open Sans" y="36.5" font-size="25pt" fill="#000000" font-weight="bold" transform="matrix(0.707, 0.409, 0, 0.816, 0, 0)" xml:space="preserve"><tspan x="8" dy="0">ssm</tspan></text></svg></g></g></g><g></g></g></svg>